M48
; DRILL file {KiCad (6.0.0)} date Sun Jun  5 14:16:45 2022
; FORMAT={3:3/ absolute / metric / suppress leading zeros}
; #@! TF.CreationDate,2022-06-05T14:16:45+02:00
; #@! TF.GenerationSoftware,Kicad,Pcbnew,(6.0.0)
; #@! TF.FileFunction,MixedPlating,1,2
FMAT,2
METRIC,TZ
; #@! TA.AperFunction,Plated,PTH,ViaDrill
T1C0.400
; #@! TA.AperFunction,Plated,PTH,ComponentDrill
T2C1.000
; #@! TA.AperFunction,Plated,PTH,ComponentDrill
T3C1.500
; #@! TA.AperFunction,Plated,PTH,ComponentDrill
T4C3.200
; #@! TA.AperFunction,NonPlated,NPTH,ComponentDrill
T5C3.050
; #@! TA.AperFunction,NonPlated,NPTH,ComponentDrill
T6C4.000
%
G90
G05
T1
X40000Y-47000
X40000Y-57500
X40000Y-69000
X40000Y-81000
X40000Y-91500
X40000Y-102000
X40000Y-113500
X40000Y-125500
X48000Y-95500
X48000Y-106500
X48000Y-131500
X59000Y-106500
X60000Y-131500
X65000Y-102000
X65000Y-111000
X71500Y-131500
X72500Y-38500
X73500Y-96000
X73500Y-106500
X82000Y-131500
X84500Y-38500
X84500Y-106500
X94000Y-131500
X96000Y-38500
X96500Y-99000
X96500Y-99000
X106000Y-131500
X106500Y-38500
X117500Y-131500
X118500Y-38500
X125500Y-99000
X128000Y-131500
X130000Y-38500
X140500Y-131500
X143500Y-38500
X152500Y-131500
X155500Y-38500
X164000Y-131500
X167000Y-38500
X174500Y-131500
X181000Y-50000
X181000Y-61500
X181000Y-73500
X181000Y-86000
X181000Y-97500
X181000Y-109500
X181000Y-118500
T2
X46634Y-39355
X46634Y-41895
X46634Y-44435
X46634Y-46975
X46634Y-49515
X46634Y-52055
X46634Y-54595
X46634Y-57135
X46634Y-59675
X46634Y-62215
X46634Y-64755
X46634Y-67295
X46634Y-69835
X61884Y-39340
X61884Y-41880
X61884Y-44420
X61884Y-46960
X61884Y-49500
X61884Y-52040
X61884Y-54580
X61884Y-57120
X61884Y-59660
X61884Y-62200
X61884Y-64740
X61884Y-67280
X61884Y-69820
X106750Y-81000
X106750Y-83500
X106750Y-86000
X121250Y-81000
X121250Y-86000
T3
X49690Y-98960
X49690Y-118460
X56040Y-96420
X56040Y-115920
X75190Y-98960
X75190Y-118460
X81540Y-96420
X81540Y-115920
X110190Y-118460
X116540Y-115920
X154690Y-79460
X154690Y-98960
X154690Y-118460
X161040Y-76920
X161040Y-96420
X161040Y-115920
T4
X40000Y-40500
X40000Y-131500
X107000Y-61000
X107000Y-105000
X181000Y-40500
X181500Y-132000
T5
X102062Y-114000
X125938Y-114000
X146562Y-75000
X146562Y-94500
X146562Y-114000
X170438Y-75000
X170438Y-94500
X170438Y-114000
T6
X53500Y-101500
X53500Y-121000
X79000Y-101500
X79000Y-121000
X102062Y-129240
X114000Y-121000
X125938Y-129240
X146562Y-90240
X146562Y-109740
X146562Y-129240
X158500Y-82000
X158500Y-101500
X158500Y-121000
X170438Y-90240
X170438Y-109740
X170438Y-129240
T3
G00X113600Y-77900
M15
G01X114900Y-77900
M16
G05
G00X113600Y-89100
M15
G01X114900Y-89100
M16
G05
T0
M30
