%TF.GenerationSoftware,KiCad,Pcbnew,(6.0.0)*%
%TF.CreationDate,2022-06-05T14:16:53+02:00*%
%TF.ProjectId,Qlab_macro_keyboard,516c6162-5f6d-4616-9372-6f5f6b657962,rev?*%
%TF.SameCoordinates,Original*%
%TF.FileFunction,Soldermask,Top*%
%TF.FilePolarity,Negative*%
%FSLAX46Y46*%
G04 Gerber Fmt 4.6, Leading zero omitted, Abs format (unit mm)*
G04 Created by KiCad (PCBNEW (6.0.0)) date 2022-06-05 14:16:53*
%MOMM*%
%LPD*%
G01*
G04 APERTURE LIST*
G04 Aperture macros list*
%AMRoundRect*
0 Rectangle with rounded corners*
0 $1 Rounding radius*
0 $2 $3 $4 $5 $6 $7 $8 $9 X,Y pos of 4 corners*
0 Add a 4 corners polygon primitive as box body*
4,1,4,$2,$3,$4,$5,$6,$7,$8,$9,$2,$3,0*
0 Add four circle primitives for the rounded corners*
1,1,$1+$1,$2,$3*
1,1,$1+$1,$4,$5*
1,1,$1+$1,$6,$7*
1,1,$1+$1,$8,$9*
0 Add four rect primitives between the rounded corners*
20,1,$1+$1,$2,$3,$4,$5,0*
20,1,$1+$1,$4,$5,$6,$7,0*
20,1,$1+$1,$6,$7,$8,$9,0*
20,1,$1+$1,$8,$9,$2,$3,0*%
G04 Aperture macros list end*
%ADD10RoundRect,0.250000X0.375000X1.075000X-0.375000X1.075000X-0.375000X-1.075000X0.375000X-1.075000X0*%
%ADD11C,4.000000*%
%ADD12C,2.200000*%
%ADD13R,2.000000X2.000000*%
%ADD14C,2.000000*%
%ADD15R,3.200000X2.000000*%
%ADD16C,3.050000*%
%ADD17C,5.600000*%
%ADD18RoundRect,0.250000X-0.375000X-1.075000X0.375000X-1.075000X0.375000X1.075000X-0.375000X1.075000X0*%
%ADD19R,1.700000X1.700000*%
%ADD20O,1.700000X1.700000*%
G04 APERTURE END LIST*
D10*
%TO.C,D5*%
X127900000Y-81000000D03*
X125100000Y-81000000D03*
%TD*%
D11*
%TO.C,SW1*%
X53500000Y-101500000D03*
D12*
X49690000Y-98960000D03*
X56040000Y-96420000D03*
%TD*%
D13*
%TO.C,ENC1*%
X106750000Y-81000000D03*
D14*
X106750000Y-86000000D03*
X106750000Y-83500000D03*
D15*
X114250000Y-89100000D03*
X114250000Y-77900000D03*
D14*
X121250000Y-86000000D03*
X121250000Y-81000000D03*
%TD*%
D11*
%TO.C,SW8*%
X158500000Y-121000000D03*
X146562000Y-129240000D03*
D16*
X170438000Y-114000000D03*
D11*
X170438000Y-129240000D03*
D16*
X146562000Y-114000000D03*
D12*
X154690000Y-118460000D03*
X161040000Y-115920000D03*
%TD*%
D11*
%TO.C,SW4*%
X79000000Y-121000000D03*
D12*
X75190000Y-118460000D03*
X81540000Y-115920000D03*
%TD*%
D11*
%TO.C,SW6*%
X146562000Y-90240000D03*
D16*
X146562000Y-75000000D03*
D11*
X158500000Y-82000000D03*
D16*
X170438000Y-75000000D03*
D11*
X170438000Y-90240000D03*
D12*
X154690000Y-79460000D03*
X161040000Y-76920000D03*
%TD*%
D10*
%TO.C,D4*%
X92900000Y-116000000D03*
X90100000Y-116000000D03*
%TD*%
D17*
%TO.C,H4*%
X40000000Y-131500000D03*
%TD*%
%TO.C,H3*%
X181000000Y-40500000D03*
%TD*%
D18*
%TO.C,D8*%
X135100000Y-96500000D03*
X137900000Y-96500000D03*
%TD*%
D10*
%TO.C,D1*%
X67400000Y-96500000D03*
X64600000Y-96500000D03*
%TD*%
D11*
%TO.C,SW7*%
X158500000Y-101500000D03*
D16*
X170438000Y-94500000D03*
D11*
X170438000Y-109740000D03*
X146562000Y-109740000D03*
D16*
X146562000Y-94500000D03*
D12*
X154690000Y-98960000D03*
X161040000Y-96420000D03*
%TD*%
D18*
%TO.C,D9*%
X135100000Y-116000000D03*
X137900000Y-116000000D03*
%TD*%
D10*
%TO.C,D2*%
X67400000Y-116000000D03*
X64600000Y-116000000D03*
%TD*%
D17*
%TO.C,H1*%
X40000000Y-40500000D03*
%TD*%
D10*
%TO.C,D3*%
X92900000Y-96500000D03*
X90100000Y-96500000D03*
%TD*%
D11*
%TO.C,SW5*%
X125938000Y-129240000D03*
X102062000Y-129240000D03*
D16*
X125938000Y-114000000D03*
D11*
X114000000Y-121000000D03*
D16*
X102062000Y-114000000D03*
D12*
X110190000Y-118460000D03*
X116540000Y-115920000D03*
%TD*%
D17*
%TO.C,H6*%
X181500000Y-132000000D03*
%TD*%
%TO.C,H5*%
X107000000Y-105000000D03*
%TD*%
D18*
%TO.C,D7*%
X135100000Y-77000000D03*
X137900000Y-77000000D03*
%TD*%
D19*
%TO.C,J2*%
X61884000Y-39340000D03*
D20*
X61884000Y-41880000D03*
X61884000Y-44420000D03*
X61884000Y-46960000D03*
X61884000Y-49500000D03*
X61884000Y-52040000D03*
X61884000Y-54580000D03*
X61884000Y-57120000D03*
X61884000Y-59660000D03*
X61884000Y-62200000D03*
X61884000Y-64740000D03*
X61884000Y-67280000D03*
X61884000Y-69820000D03*
%TD*%
D11*
%TO.C,SW3*%
X79000000Y-101500000D03*
D12*
X75190000Y-98960000D03*
X81540000Y-96420000D03*
%TD*%
D10*
%TO.C,D6*%
X127900000Y-109500000D03*
X125100000Y-109500000D03*
%TD*%
D11*
%TO.C,SW2*%
X53500000Y-121000000D03*
D12*
X49690000Y-118460000D03*
X56040000Y-115920000D03*
%TD*%
D17*
%TO.C,H2*%
X107000000Y-61000000D03*
%TD*%
D19*
%TO.C,J1*%
X46634000Y-39355000D03*
D20*
X46634000Y-41895000D03*
X46634000Y-44435000D03*
X46634000Y-46975000D03*
X46634000Y-49515000D03*
X46634000Y-52055000D03*
X46634000Y-54595000D03*
X46634000Y-57135000D03*
X46634000Y-59675000D03*
X46634000Y-62215000D03*
X46634000Y-64755000D03*
X46634000Y-67295000D03*
X46634000Y-69835000D03*
%TD*%
M02*
