%TF.GenerationSoftware,KiCad,Pcbnew,(6.0.0)*%
%TF.CreationDate,2022-06-05T14:16:53+02:00*%
%TF.ProjectId,Qlab_macro_keyboard,516c6162-5f6d-4616-9372-6f5f6b657962,rev?*%
%TF.SameCoordinates,Original*%
%TF.FileFunction,Soldermask,Bot*%
%TF.FilePolarity,Negative*%
%FSLAX46Y46*%
G04 Gerber Fmt 4.6, Leading zero omitted, Abs format (unit mm)*
G04 Created by KiCad (PCBNEW (6.0.0)) date 2022-06-05 14:16:53*
%MOMM*%
%LPD*%
G01*
G04 APERTURE LIST*
%ADD10C,4.000000*%
%ADD11C,2.200000*%
%ADD12R,2.000000X2.000000*%
%ADD13C,2.000000*%
%ADD14R,3.200000X2.000000*%
%ADD15C,3.050000*%
%ADD16C,5.600000*%
%ADD17R,1.700000X1.700000*%
%ADD18O,1.700000X1.700000*%
G04 APERTURE END LIST*
D10*
%TO.C,SW1*%
X53500000Y-101500000D03*
D11*
X49690000Y-98960000D03*
X56040000Y-96420000D03*
%TD*%
D12*
%TO.C,ENC1*%
X106750000Y-81000000D03*
D13*
X106750000Y-86000000D03*
X106750000Y-83500000D03*
D14*
X114250000Y-89100000D03*
X114250000Y-77900000D03*
D13*
X121250000Y-86000000D03*
X121250000Y-81000000D03*
%TD*%
D10*
%TO.C,SW8*%
X158500000Y-121000000D03*
X146562000Y-129240000D03*
D15*
X170438000Y-114000000D03*
D10*
X170438000Y-129240000D03*
D15*
X146562000Y-114000000D03*
D11*
X154690000Y-118460000D03*
X161040000Y-115920000D03*
%TD*%
D10*
%TO.C,SW4*%
X79000000Y-121000000D03*
D11*
X75190000Y-118460000D03*
X81540000Y-115920000D03*
%TD*%
D10*
%TO.C,SW6*%
X146562000Y-90240000D03*
D15*
X146562000Y-75000000D03*
D10*
X158500000Y-82000000D03*
D15*
X170438000Y-75000000D03*
D10*
X170438000Y-90240000D03*
D11*
X154690000Y-79460000D03*
X161040000Y-76920000D03*
%TD*%
D16*
%TO.C,H4*%
X40000000Y-131500000D03*
%TD*%
%TO.C,H3*%
X181000000Y-40500000D03*
%TD*%
D10*
%TO.C,SW7*%
X158500000Y-101500000D03*
D15*
X170438000Y-94500000D03*
D10*
X170438000Y-109740000D03*
X146562000Y-109740000D03*
D15*
X146562000Y-94500000D03*
D11*
X154690000Y-98960000D03*
X161040000Y-96420000D03*
%TD*%
D16*
%TO.C,H1*%
X40000000Y-40500000D03*
%TD*%
D10*
%TO.C,SW5*%
X125938000Y-129240000D03*
X102062000Y-129240000D03*
D15*
X125938000Y-114000000D03*
D10*
X114000000Y-121000000D03*
D15*
X102062000Y-114000000D03*
D11*
X110190000Y-118460000D03*
X116540000Y-115920000D03*
%TD*%
D16*
%TO.C,H6*%
X181500000Y-132000000D03*
%TD*%
%TO.C,H5*%
X107000000Y-105000000D03*
%TD*%
D17*
%TO.C,J2*%
X61884000Y-39340000D03*
D18*
X61884000Y-41880000D03*
X61884000Y-44420000D03*
X61884000Y-46960000D03*
X61884000Y-49500000D03*
X61884000Y-52040000D03*
X61884000Y-54580000D03*
X61884000Y-57120000D03*
X61884000Y-59660000D03*
X61884000Y-62200000D03*
X61884000Y-64740000D03*
X61884000Y-67280000D03*
X61884000Y-69820000D03*
%TD*%
D10*
%TO.C,SW3*%
X79000000Y-101500000D03*
D11*
X75190000Y-98960000D03*
X81540000Y-96420000D03*
%TD*%
D10*
%TO.C,SW2*%
X53500000Y-121000000D03*
D11*
X49690000Y-118460000D03*
X56040000Y-115920000D03*
%TD*%
D16*
%TO.C,H2*%
X107000000Y-61000000D03*
%TD*%
D17*
%TO.C,J1*%
X46634000Y-39355000D03*
D18*
X46634000Y-41895000D03*
X46634000Y-44435000D03*
X46634000Y-46975000D03*
X46634000Y-49515000D03*
X46634000Y-52055000D03*
X46634000Y-54595000D03*
X46634000Y-57135000D03*
X46634000Y-59675000D03*
X46634000Y-62215000D03*
X46634000Y-64755000D03*
X46634000Y-67295000D03*
X46634000Y-69835000D03*
%TD*%
M02*
