%TF.GenerationSoftware,KiCad,Pcbnew,(6.0.0)*%
%TF.CreationDate,2022-06-05T14:16:53+02:00*%
%TF.ProjectId,Qlab_macro_keyboard,516c6162-5f6d-4616-9372-6f5f6b657962,rev?*%
%TF.SameCoordinates,Original*%
%TF.FileFunction,Legend,Top*%
%TF.FilePolarity,Positive*%
%FSLAX46Y46*%
G04 Gerber Fmt 4.6, Leading zero omitted, Abs format (unit mm)*
G04 Created by KiCad (PCBNEW (6.0.0)) date 2022-06-05 14:16:53*
%MOMM*%
%LPD*%
G01*
G04 APERTURE LIST*
%ADD10C,0.300000*%
%ADD11C,0.150000*%
%ADD12C,0.120000*%
G04 APERTURE END LIST*
D10*
X133321428Y-42113928D02*
X133178571Y-42042500D01*
X133035714Y-41899642D01*
X132821428Y-41685357D01*
X132678571Y-41613928D01*
X132535714Y-41613928D01*
X132607142Y-41971071D02*
X132464285Y-41899642D01*
X132321428Y-41756785D01*
X132250000Y-41471071D01*
X132250000Y-40971071D01*
X132321428Y-40685357D01*
X132464285Y-40542500D01*
X132607142Y-40471071D01*
X132892857Y-40471071D01*
X133035714Y-40542500D01*
X133178571Y-40685357D01*
X133250000Y-40971071D01*
X133250000Y-41471071D01*
X133178571Y-41756785D01*
X133035714Y-41899642D01*
X132892857Y-41971071D01*
X132607142Y-41971071D01*
X134107142Y-41971071D02*
X133964285Y-41899642D01*
X133892857Y-41756785D01*
X133892857Y-40471071D01*
X135321428Y-41971071D02*
X135321428Y-41185357D01*
X135250000Y-41042500D01*
X135107142Y-40971071D01*
X134821428Y-40971071D01*
X134678571Y-41042500D01*
X135321428Y-41899642D02*
X135178571Y-41971071D01*
X134821428Y-41971071D01*
X134678571Y-41899642D01*
X134607142Y-41756785D01*
X134607142Y-41613928D01*
X134678571Y-41471071D01*
X134821428Y-41399642D01*
X135178571Y-41399642D01*
X135321428Y-41328214D01*
X136035714Y-41971071D02*
X136035714Y-40471071D01*
X136035714Y-41042500D02*
X136178571Y-40971071D01*
X136464285Y-40971071D01*
X136607142Y-41042500D01*
X136678571Y-41113928D01*
X136750000Y-41256785D01*
X136750000Y-41685357D01*
X136678571Y-41828214D01*
X136607142Y-41899642D01*
X136464285Y-41971071D01*
X136178571Y-41971071D01*
X136035714Y-41899642D01*
X138535714Y-41971071D02*
X138535714Y-40971071D01*
X138535714Y-41113928D02*
X138607142Y-41042500D01*
X138750000Y-40971071D01*
X138964285Y-40971071D01*
X139107142Y-41042500D01*
X139178571Y-41185357D01*
X139178571Y-41971071D01*
X139178571Y-41185357D02*
X139250000Y-41042500D01*
X139392857Y-40971071D01*
X139607142Y-40971071D01*
X139750000Y-41042500D01*
X139821428Y-41185357D01*
X139821428Y-41971071D01*
X141178571Y-41971071D02*
X141178571Y-41185357D01*
X141107142Y-41042500D01*
X140964285Y-40971071D01*
X140678571Y-40971071D01*
X140535714Y-41042500D01*
X141178571Y-41899642D02*
X141035714Y-41971071D01*
X140678571Y-41971071D01*
X140535714Y-41899642D01*
X140464285Y-41756785D01*
X140464285Y-41613928D01*
X140535714Y-41471071D01*
X140678571Y-41399642D01*
X141035714Y-41399642D01*
X141178571Y-41328214D01*
X142535714Y-41899642D02*
X142392857Y-41971071D01*
X142107142Y-41971071D01*
X141964285Y-41899642D01*
X141892857Y-41828214D01*
X141821428Y-41685357D01*
X141821428Y-41256785D01*
X141892857Y-41113928D01*
X141964285Y-41042500D01*
X142107142Y-40971071D01*
X142392857Y-40971071D01*
X142535714Y-41042500D01*
X143178571Y-41971071D02*
X143178571Y-40971071D01*
X143178571Y-41256785D02*
X143250000Y-41113928D01*
X143321428Y-41042500D01*
X143464285Y-40971071D01*
X143607142Y-40971071D01*
X144321428Y-41971071D02*
X144178571Y-41899642D01*
X144107142Y-41828214D01*
X144035714Y-41685357D01*
X144035714Y-41256785D01*
X144107142Y-41113928D01*
X144178571Y-41042500D01*
X144321428Y-40971071D01*
X144535714Y-40971071D01*
X144678571Y-41042500D01*
X144750000Y-41113928D01*
X144821428Y-41256785D01*
X144821428Y-41685357D01*
X144750000Y-41828214D01*
X144678571Y-41899642D01*
X144535714Y-41971071D01*
X144321428Y-41971071D01*
X146607142Y-41971071D02*
X146607142Y-40471071D01*
X146750000Y-41399642D02*
X147178571Y-41971071D01*
X147178571Y-40971071D02*
X146607142Y-41542500D01*
X148392857Y-41899642D02*
X148250000Y-41971071D01*
X147964285Y-41971071D01*
X147821428Y-41899642D01*
X147750000Y-41756785D01*
X147750000Y-41185357D01*
X147821428Y-41042500D01*
X147964285Y-40971071D01*
X148250000Y-40971071D01*
X148392857Y-41042500D01*
X148464285Y-41185357D01*
X148464285Y-41328214D01*
X147750000Y-41471071D01*
X148964285Y-40971071D02*
X149321428Y-41971071D01*
X149678571Y-40971071D02*
X149321428Y-41971071D01*
X149178571Y-42328214D01*
X149107142Y-42399642D01*
X148964285Y-42471071D01*
X150250000Y-41971071D02*
X150250000Y-40471071D01*
X150250000Y-41042500D02*
X150392857Y-40971071D01*
X150678571Y-40971071D01*
X150821428Y-41042500D01*
X150892857Y-41113928D01*
X150964285Y-41256785D01*
X150964285Y-41685357D01*
X150892857Y-41828214D01*
X150821428Y-41899642D01*
X150678571Y-41971071D01*
X150392857Y-41971071D01*
X150250000Y-41899642D01*
X151821428Y-41971071D02*
X151678571Y-41899642D01*
X151607142Y-41828214D01*
X151535714Y-41685357D01*
X151535714Y-41256785D01*
X151607142Y-41113928D01*
X151678571Y-41042500D01*
X151821428Y-40971071D01*
X152035714Y-40971071D01*
X152178571Y-41042500D01*
X152250000Y-41113928D01*
X152321428Y-41256785D01*
X152321428Y-41685357D01*
X152250000Y-41828214D01*
X152178571Y-41899642D01*
X152035714Y-41971071D01*
X151821428Y-41971071D01*
X153607142Y-41971071D02*
X153607142Y-41185357D01*
X153535714Y-41042500D01*
X153392857Y-40971071D01*
X153107142Y-40971071D01*
X152964285Y-41042500D01*
X153607142Y-41899642D02*
X153464285Y-41971071D01*
X153107142Y-41971071D01*
X152964285Y-41899642D01*
X152892857Y-41756785D01*
X152892857Y-41613928D01*
X152964285Y-41471071D01*
X153107142Y-41399642D01*
X153464285Y-41399642D01*
X153607142Y-41328214D01*
X154321428Y-41971071D02*
X154321428Y-40971071D01*
X154321428Y-41256785D02*
X154392857Y-41113928D01*
X154464285Y-41042500D01*
X154607142Y-40971071D01*
X154750000Y-40971071D01*
X155892857Y-41971071D02*
X155892857Y-40471071D01*
X155892857Y-41899642D02*
X155750000Y-41971071D01*
X155464285Y-41971071D01*
X155321428Y-41899642D01*
X155250000Y-41828214D01*
X155178571Y-41685357D01*
X155178571Y-41256785D01*
X155250000Y-41113928D01*
X155321428Y-41042500D01*
X155464285Y-40971071D01*
X155750000Y-40971071D01*
X155892857Y-41042500D01*
X157750000Y-41971071D02*
X157750000Y-40971071D01*
X157750000Y-41256785D02*
X157821428Y-41113928D01*
X157892857Y-41042500D01*
X158035714Y-40971071D01*
X158178571Y-40971071D01*
X159250000Y-41899642D02*
X159107142Y-41971071D01*
X158821428Y-41971071D01*
X158678571Y-41899642D01*
X158607142Y-41756785D01*
X158607142Y-41185357D01*
X158678571Y-41042500D01*
X158821428Y-40971071D01*
X159107142Y-40971071D01*
X159250000Y-41042500D01*
X159321428Y-41185357D01*
X159321428Y-41328214D01*
X158607142Y-41471071D01*
X159821428Y-40971071D02*
X160178571Y-41971071D01*
X160535714Y-40971071D01*
X161107142Y-41828214D02*
X161178571Y-41899642D01*
X161107142Y-41971071D01*
X161035714Y-41899642D01*
X161107142Y-41828214D01*
X161107142Y-41971071D01*
X162107142Y-40471071D02*
X162250000Y-40471071D01*
X162392857Y-40542500D01*
X162464285Y-40613928D01*
X162535714Y-40756785D01*
X162607142Y-41042500D01*
X162607142Y-41399642D01*
X162535714Y-41685357D01*
X162464285Y-41828214D01*
X162392857Y-41899642D01*
X162250000Y-41971071D01*
X162107142Y-41971071D01*
X161964285Y-41899642D01*
X161892857Y-41828214D01*
X161821428Y-41685357D01*
X161750000Y-41399642D01*
X161750000Y-41042500D01*
X161821428Y-40756785D01*
X161892857Y-40613928D01*
X161964285Y-40542500D01*
X162107142Y-40471071D01*
X163250000Y-41828214D02*
X163321428Y-41899642D01*
X163250000Y-41971071D01*
X163178571Y-41899642D01*
X163250000Y-41828214D01*
X163250000Y-41971071D01*
X164750000Y-41971071D02*
X163892857Y-41971071D01*
X164321428Y-41971071D02*
X164321428Y-40471071D01*
X164178571Y-40685357D01*
X164035714Y-40828214D01*
X163892857Y-40899642D01*
X135928571Y-44386071D02*
X135928571Y-42886071D01*
X135928571Y-43457500D02*
X136071428Y-43386071D01*
X136357142Y-43386071D01*
X136500000Y-43457500D01*
X136571428Y-43528928D01*
X136642857Y-43671785D01*
X136642857Y-44100357D01*
X136571428Y-44243214D01*
X136500000Y-44314642D01*
X136357142Y-44386071D01*
X136071428Y-44386071D01*
X135928571Y-44314642D01*
X137142857Y-43386071D02*
X137500000Y-44386071D01*
X137857142Y-43386071D02*
X137500000Y-44386071D01*
X137357142Y-44743214D01*
X137285714Y-44814642D01*
X137142857Y-44886071D01*
X140071428Y-43600357D02*
X139571428Y-43600357D01*
X139571428Y-44386071D02*
X139571428Y-42886071D01*
X140285714Y-42886071D01*
X141500000Y-44386071D02*
X141500000Y-43600357D01*
X141428571Y-43457500D01*
X141285714Y-43386071D01*
X141000000Y-43386071D01*
X140857142Y-43457500D01*
X141500000Y-44314642D02*
X141357142Y-44386071D01*
X141000000Y-44386071D01*
X140857142Y-44314642D01*
X140785714Y-44171785D01*
X140785714Y-44028928D01*
X140857142Y-43886071D01*
X141000000Y-43814642D01*
X141357142Y-43814642D01*
X141500000Y-43743214D01*
X142214285Y-44386071D02*
X142214285Y-42886071D01*
X142214285Y-43457500D02*
X142357142Y-43386071D01*
X142642857Y-43386071D01*
X142785714Y-43457500D01*
X142857142Y-43528928D01*
X142928571Y-43671785D01*
X142928571Y-44100357D01*
X142857142Y-44243214D01*
X142785714Y-44314642D01*
X142642857Y-44386071D01*
X142357142Y-44386071D01*
X142214285Y-44314642D01*
X143571428Y-44386071D02*
X143571428Y-43386071D01*
X143571428Y-42886071D02*
X143500000Y-42957500D01*
X143571428Y-43028928D01*
X143642857Y-42957500D01*
X143571428Y-42886071D01*
X143571428Y-43028928D01*
X144928571Y-44386071D02*
X144928571Y-43600357D01*
X144857142Y-43457500D01*
X144714285Y-43386071D01*
X144428571Y-43386071D01*
X144285714Y-43457500D01*
X144928571Y-44314642D02*
X144785714Y-44386071D01*
X144428571Y-44386071D01*
X144285714Y-44314642D01*
X144214285Y-44171785D01*
X144214285Y-44028928D01*
X144285714Y-43886071D01*
X144428571Y-43814642D01*
X144785714Y-43814642D01*
X144928571Y-43743214D01*
X145642857Y-43386071D02*
X145642857Y-44386071D01*
X145642857Y-43528928D02*
X145714285Y-43457500D01*
X145857142Y-43386071D01*
X146071428Y-43386071D01*
X146214285Y-43457500D01*
X146285714Y-43600357D01*
X146285714Y-44386071D01*
X148142857Y-44386071D02*
X148142857Y-42886071D01*
X148642857Y-43957500D01*
X149142857Y-42886071D01*
X149142857Y-44386071D01*
X150500000Y-43386071D02*
X150500000Y-44386071D01*
X149857142Y-43386071D02*
X149857142Y-44171785D01*
X149928571Y-44314642D01*
X150071428Y-44386071D01*
X150285714Y-44386071D01*
X150428571Y-44314642D01*
X150500000Y-44243214D01*
X151785714Y-44314642D02*
X151642857Y-44386071D01*
X151357142Y-44386071D01*
X151214285Y-44314642D01*
X151142857Y-44171785D01*
X151142857Y-43600357D01*
X151214285Y-43457500D01*
X151357142Y-43386071D01*
X151642857Y-43386071D01*
X151785714Y-43457500D01*
X151857142Y-43600357D01*
X151857142Y-43743214D01*
X151142857Y-43886071D01*
X152500000Y-44386071D02*
X152500000Y-42886071D01*
X153142857Y-44386071D02*
X153142857Y-43600357D01*
X153071428Y-43457500D01*
X152928571Y-43386071D01*
X152714285Y-43386071D01*
X152571428Y-43457500D01*
X152500000Y-43528928D01*
X154071428Y-44386071D02*
X153928571Y-44314642D01*
X153857142Y-44171785D01*
X153857142Y-42886071D01*
X154642857Y-44386071D02*
X154642857Y-42886071D01*
X154642857Y-43457500D02*
X154785714Y-43386071D01*
X155071428Y-43386071D01*
X155214285Y-43457500D01*
X155285714Y-43528928D01*
X155357142Y-43671785D01*
X155357142Y-44100357D01*
X155285714Y-44243214D01*
X155214285Y-44314642D01*
X155071428Y-44386071D01*
X154785714Y-44386071D01*
X154642857Y-44314642D01*
X156571428Y-44314642D02*
X156428571Y-44386071D01*
X156142857Y-44386071D01*
X156000000Y-44314642D01*
X155928571Y-44171785D01*
X155928571Y-43600357D01*
X156000000Y-43457500D01*
X156142857Y-43386071D01*
X156428571Y-43386071D01*
X156571428Y-43457500D01*
X156642857Y-43600357D01*
X156642857Y-43743214D01*
X155928571Y-43886071D01*
X157285714Y-44386071D02*
X157285714Y-43386071D01*
X157285714Y-43671785D02*
X157357142Y-43528928D01*
X157428571Y-43457500D01*
X157571428Y-43386071D01*
X157714285Y-43386071D01*
X158857142Y-43386071D02*
X158857142Y-44600357D01*
X158785714Y-44743214D01*
X158714285Y-44814642D01*
X158571428Y-44886071D01*
X158357142Y-44886071D01*
X158214285Y-44814642D01*
X158857142Y-44314642D02*
X158714285Y-44386071D01*
X158428571Y-44386071D01*
X158285714Y-44314642D01*
X158214285Y-44243214D01*
X158142857Y-44100357D01*
X158142857Y-43671785D01*
X158214285Y-43528928D01*
X158285714Y-43457500D01*
X158428571Y-43386071D01*
X158714285Y-43386071D01*
X158857142Y-43457500D01*
X160142857Y-44314642D02*
X160000000Y-44386071D01*
X159714285Y-44386071D01*
X159571428Y-44314642D01*
X159500000Y-44171785D01*
X159500000Y-43600357D01*
X159571428Y-43457500D01*
X159714285Y-43386071D01*
X160000000Y-43386071D01*
X160142857Y-43457500D01*
X160214285Y-43600357D01*
X160214285Y-43743214D01*
X159500000Y-43886071D01*
X160857142Y-44386071D02*
X160857142Y-43386071D01*
X160857142Y-43671785D02*
X160928571Y-43528928D01*
X161000000Y-43457500D01*
X161142857Y-43386071D01*
X161285714Y-43386071D01*
X92392857Y-107892857D02*
X92892857Y-107892857D01*
X93107142Y-108678571D02*
X92392857Y-108678571D01*
X92392857Y-107178571D01*
X93107142Y-107178571D01*
X93750000Y-108678571D02*
X93750000Y-107178571D01*
X94607142Y-108678571D01*
X94607142Y-107178571D01*
X95107142Y-107178571D02*
X95964285Y-107178571D01*
X95535714Y-108678571D02*
X95535714Y-107178571D01*
X96464285Y-107892857D02*
X96964285Y-107892857D01*
X97178571Y-108678571D02*
X96464285Y-108678571D01*
X96464285Y-107178571D01*
X97178571Y-107178571D01*
X98678571Y-108678571D02*
X98178571Y-107964285D01*
X97821428Y-108678571D02*
X97821428Y-107178571D01*
X98392857Y-107178571D01*
X98535714Y-107250000D01*
X98607142Y-107321428D01*
X98678571Y-107464285D01*
X98678571Y-107678571D01*
X98607142Y-107821428D01*
X98535714Y-107892857D01*
X98392857Y-107964285D01*
X97821428Y-107964285D01*
X131785714Y-92678571D02*
X131785714Y-91178571D01*
X132357142Y-91178571D01*
X132500000Y-91250000D01*
X132571428Y-91321428D01*
X132642857Y-91464285D01*
X132642857Y-91678571D01*
X132571428Y-91821428D01*
X132500000Y-91892857D01*
X132357142Y-91964285D01*
X131785714Y-91964285D01*
X133214285Y-92250000D02*
X133928571Y-92250000D01*
X133071428Y-92678571D02*
X133571428Y-91178571D01*
X134071428Y-92678571D01*
X134571428Y-91178571D02*
X134571428Y-92392857D01*
X134642857Y-92535714D01*
X134714285Y-92607142D01*
X134857142Y-92678571D01*
X135142857Y-92678571D01*
X135285714Y-92607142D01*
X135357142Y-92535714D01*
X135428571Y-92392857D01*
X135428571Y-91178571D01*
X136071428Y-92607142D02*
X136285714Y-92678571D01*
X136642857Y-92678571D01*
X136785714Y-92607142D01*
X136857142Y-92535714D01*
X136928571Y-92392857D01*
X136928571Y-92250000D01*
X136857142Y-92107142D01*
X136785714Y-92035714D01*
X136642857Y-91964285D01*
X136357142Y-91892857D01*
X136214285Y-91821428D01*
X136142857Y-91750000D01*
X136071428Y-91607142D01*
X136071428Y-91464285D01*
X136142857Y-91321428D01*
X136214285Y-91250000D01*
X136357142Y-91178571D01*
X136714285Y-91178571D01*
X136928571Y-91250000D01*
X137571428Y-91892857D02*
X138071428Y-91892857D01*
X138285714Y-92678571D02*
X137571428Y-92678571D01*
X137571428Y-91178571D01*
X138285714Y-91178571D01*
X133214285Y-110178571D02*
X133214285Y-108678571D01*
X133785714Y-108678571D01*
X133928571Y-108750000D01*
X134000000Y-108821428D01*
X134071428Y-108964285D01*
X134071428Y-109178571D01*
X134000000Y-109321428D01*
X133928571Y-109392857D01*
X133785714Y-109464285D01*
X133214285Y-109464285D01*
X135428571Y-110178571D02*
X134714285Y-110178571D01*
X134714285Y-108678571D01*
X135857142Y-109750000D02*
X136571428Y-109750000D01*
X135714285Y-110178571D02*
X136214285Y-108678571D01*
X136714285Y-110178571D01*
X137500000Y-109464285D02*
X137500000Y-110178571D01*
X137000000Y-108678571D02*
X137500000Y-109464285D01*
X138000000Y-108678571D01*
D11*
%TO.C,D5*%
X125761904Y-83732380D02*
X125761904Y-82732380D01*
X126000000Y-82732380D01*
X126142857Y-82780000D01*
X126238095Y-82875238D01*
X126285714Y-82970476D01*
X126333333Y-83160952D01*
X126333333Y-83303809D01*
X126285714Y-83494285D01*
X126238095Y-83589523D01*
X126142857Y-83684761D01*
X126000000Y-83732380D01*
X125761904Y-83732380D01*
X127238095Y-82732380D02*
X126761904Y-82732380D01*
X126714285Y-83208571D01*
X126761904Y-83160952D01*
X126857142Y-83113333D01*
X127095238Y-83113333D01*
X127190476Y-83160952D01*
X127238095Y-83208571D01*
X127285714Y-83303809D01*
X127285714Y-83541904D01*
X127238095Y-83637142D01*
X127190476Y-83684761D01*
X127095238Y-83732380D01*
X126857142Y-83732380D01*
X126761904Y-83684761D01*
X126714285Y-83637142D01*
%TO.C,SW1*%
X52166666Y-93242261D02*
X52309523Y-93289880D01*
X52547619Y-93289880D01*
X52642857Y-93242261D01*
X52690476Y-93194642D01*
X52738095Y-93099404D01*
X52738095Y-93004166D01*
X52690476Y-92908928D01*
X52642857Y-92861309D01*
X52547619Y-92813690D01*
X52357142Y-92766071D01*
X52261904Y-92718452D01*
X52214285Y-92670833D01*
X52166666Y-92575595D01*
X52166666Y-92480357D01*
X52214285Y-92385119D01*
X52261904Y-92337500D01*
X52357142Y-92289880D01*
X52595238Y-92289880D01*
X52738095Y-92337500D01*
X53071428Y-92289880D02*
X53309523Y-93289880D01*
X53500000Y-92575595D01*
X53690476Y-93289880D01*
X53928571Y-92289880D01*
X54833333Y-93289880D02*
X54261904Y-93289880D01*
X54547619Y-93289880D02*
X54547619Y-92289880D01*
X54452380Y-92432738D01*
X54357142Y-92527976D01*
X54261904Y-92575595D01*
%TO.C,ENC1*%
X107835714Y-76228571D02*
X108169047Y-76228571D01*
X108311904Y-76752380D02*
X107835714Y-76752380D01*
X107835714Y-75752380D01*
X108311904Y-75752380D01*
X108740476Y-76752380D02*
X108740476Y-75752380D01*
X109311904Y-76752380D01*
X109311904Y-75752380D01*
X110359523Y-76657142D02*
X110311904Y-76704761D01*
X110169047Y-76752380D01*
X110073809Y-76752380D01*
X109930952Y-76704761D01*
X109835714Y-76609523D01*
X109788095Y-76514285D01*
X109740476Y-76323809D01*
X109740476Y-76180952D01*
X109788095Y-75990476D01*
X109835714Y-75895238D01*
X109930952Y-75800000D01*
X110073809Y-75752380D01*
X110169047Y-75752380D01*
X110311904Y-75800000D01*
X110359523Y-75847619D01*
X111311904Y-76752380D02*
X110740476Y-76752380D01*
X111026190Y-76752380D02*
X111026190Y-75752380D01*
X110930952Y-75895238D01*
X110835714Y-75990476D01*
X110740476Y-76038095D01*
%TO.C,SW8*%
X157166666Y-112742261D02*
X157309523Y-112789880D01*
X157547619Y-112789880D01*
X157642857Y-112742261D01*
X157690476Y-112694642D01*
X157738095Y-112599404D01*
X157738095Y-112504166D01*
X157690476Y-112408928D01*
X157642857Y-112361309D01*
X157547619Y-112313690D01*
X157357142Y-112266071D01*
X157261904Y-112218452D01*
X157214285Y-112170833D01*
X157166666Y-112075595D01*
X157166666Y-111980357D01*
X157214285Y-111885119D01*
X157261904Y-111837500D01*
X157357142Y-111789880D01*
X157595238Y-111789880D01*
X157738095Y-111837500D01*
X158071428Y-111789880D02*
X158309523Y-112789880D01*
X158500000Y-112075595D01*
X158690476Y-112789880D01*
X158928571Y-111789880D01*
X159452380Y-112218452D02*
X159357142Y-112170833D01*
X159309523Y-112123214D01*
X159261904Y-112027976D01*
X159261904Y-111980357D01*
X159309523Y-111885119D01*
X159357142Y-111837500D01*
X159452380Y-111789880D01*
X159642857Y-111789880D01*
X159738095Y-111837500D01*
X159785714Y-111885119D01*
X159833333Y-111980357D01*
X159833333Y-112027976D01*
X159785714Y-112123214D01*
X159738095Y-112170833D01*
X159642857Y-112218452D01*
X159452380Y-112218452D01*
X159357142Y-112266071D01*
X159309523Y-112313690D01*
X159261904Y-112408928D01*
X159261904Y-112599404D01*
X159309523Y-112694642D01*
X159357142Y-112742261D01*
X159452380Y-112789880D01*
X159642857Y-112789880D01*
X159738095Y-112742261D01*
X159785714Y-112694642D01*
X159833333Y-112599404D01*
X159833333Y-112408928D01*
X159785714Y-112313690D01*
X159738095Y-112266071D01*
X159642857Y-112218452D01*
%TO.C,SW4*%
X77666666Y-112742261D02*
X77809523Y-112789880D01*
X78047619Y-112789880D01*
X78142857Y-112742261D01*
X78190476Y-112694642D01*
X78238095Y-112599404D01*
X78238095Y-112504166D01*
X78190476Y-112408928D01*
X78142857Y-112361309D01*
X78047619Y-112313690D01*
X77857142Y-112266071D01*
X77761904Y-112218452D01*
X77714285Y-112170833D01*
X77666666Y-112075595D01*
X77666666Y-111980357D01*
X77714285Y-111885119D01*
X77761904Y-111837500D01*
X77857142Y-111789880D01*
X78095238Y-111789880D01*
X78238095Y-111837500D01*
X78571428Y-111789880D02*
X78809523Y-112789880D01*
X79000000Y-112075595D01*
X79190476Y-112789880D01*
X79428571Y-111789880D01*
X80238095Y-112123214D02*
X80238095Y-112789880D01*
X80000000Y-111742261D02*
X79761904Y-112456547D01*
X80380952Y-112456547D01*
%TO.C,SW6*%
X157166666Y-73742261D02*
X157309523Y-73789880D01*
X157547619Y-73789880D01*
X157642857Y-73742261D01*
X157690476Y-73694642D01*
X157738095Y-73599404D01*
X157738095Y-73504166D01*
X157690476Y-73408928D01*
X157642857Y-73361309D01*
X157547619Y-73313690D01*
X157357142Y-73266071D01*
X157261904Y-73218452D01*
X157214285Y-73170833D01*
X157166666Y-73075595D01*
X157166666Y-72980357D01*
X157214285Y-72885119D01*
X157261904Y-72837500D01*
X157357142Y-72789880D01*
X157595238Y-72789880D01*
X157738095Y-72837500D01*
X158071428Y-72789880D02*
X158309523Y-73789880D01*
X158500000Y-73075595D01*
X158690476Y-73789880D01*
X158928571Y-72789880D01*
X159738095Y-72789880D02*
X159547619Y-72789880D01*
X159452380Y-72837500D01*
X159404761Y-72885119D01*
X159309523Y-73027976D01*
X159261904Y-73218452D01*
X159261904Y-73599404D01*
X159309523Y-73694642D01*
X159357142Y-73742261D01*
X159452380Y-73789880D01*
X159642857Y-73789880D01*
X159738095Y-73742261D01*
X159785714Y-73694642D01*
X159833333Y-73599404D01*
X159833333Y-73361309D01*
X159785714Y-73266071D01*
X159738095Y-73218452D01*
X159642857Y-73170833D01*
X159452380Y-73170833D01*
X159357142Y-73218452D01*
X159309523Y-73266071D01*
X159261904Y-73361309D01*
%TO.C,D4*%
X90761904Y-118732380D02*
X90761904Y-117732380D01*
X91000000Y-117732380D01*
X91142857Y-117780000D01*
X91238095Y-117875238D01*
X91285714Y-117970476D01*
X91333333Y-118160952D01*
X91333333Y-118303809D01*
X91285714Y-118494285D01*
X91238095Y-118589523D01*
X91142857Y-118684761D01*
X91000000Y-118732380D01*
X90761904Y-118732380D01*
X92190476Y-118065714D02*
X92190476Y-118732380D01*
X91952380Y-117684761D02*
X91714285Y-118399047D01*
X92333333Y-118399047D01*
%TO.C,H4*%
X40988095Y-128402380D02*
X40988095Y-127402380D01*
X40988095Y-127878571D02*
X41559523Y-127878571D01*
X41559523Y-128402380D02*
X41559523Y-127402380D01*
X42464285Y-127735714D02*
X42464285Y-128402380D01*
X42226190Y-127354761D02*
X41988095Y-128069047D01*
X42607142Y-128069047D01*
%TO.C,H3*%
X180238095Y-37152380D02*
X180238095Y-36152380D01*
X180238095Y-36628571D02*
X180809523Y-36628571D01*
X180809523Y-37152380D02*
X180809523Y-36152380D01*
X181190476Y-36152380D02*
X181809523Y-36152380D01*
X181476190Y-36533333D01*
X181619047Y-36533333D01*
X181714285Y-36580952D01*
X181761904Y-36628571D01*
X181809523Y-36723809D01*
X181809523Y-36961904D01*
X181761904Y-37057142D01*
X181714285Y-37104761D01*
X181619047Y-37152380D01*
X181333333Y-37152380D01*
X181238095Y-37104761D01*
X181190476Y-37057142D01*
%TO.C,D8*%
X135761904Y-94672380D02*
X135761904Y-93672380D01*
X136000000Y-93672380D01*
X136142857Y-93720000D01*
X136238095Y-93815238D01*
X136285714Y-93910476D01*
X136333333Y-94100952D01*
X136333333Y-94243809D01*
X136285714Y-94434285D01*
X136238095Y-94529523D01*
X136142857Y-94624761D01*
X136000000Y-94672380D01*
X135761904Y-94672380D01*
X136904761Y-94100952D02*
X136809523Y-94053333D01*
X136761904Y-94005714D01*
X136714285Y-93910476D01*
X136714285Y-93862857D01*
X136761904Y-93767619D01*
X136809523Y-93720000D01*
X136904761Y-93672380D01*
X137095238Y-93672380D01*
X137190476Y-93720000D01*
X137238095Y-93767619D01*
X137285714Y-93862857D01*
X137285714Y-93910476D01*
X137238095Y-94005714D01*
X137190476Y-94053333D01*
X137095238Y-94100952D01*
X136904761Y-94100952D01*
X136809523Y-94148571D01*
X136761904Y-94196190D01*
X136714285Y-94291428D01*
X136714285Y-94481904D01*
X136761904Y-94577142D01*
X136809523Y-94624761D01*
X136904761Y-94672380D01*
X137095238Y-94672380D01*
X137190476Y-94624761D01*
X137238095Y-94577142D01*
X137285714Y-94481904D01*
X137285714Y-94291428D01*
X137238095Y-94196190D01*
X137190476Y-94148571D01*
X137095238Y-94100952D01*
%TO.C,D1*%
X65261904Y-99232380D02*
X65261904Y-98232380D01*
X65500000Y-98232380D01*
X65642857Y-98280000D01*
X65738095Y-98375238D01*
X65785714Y-98470476D01*
X65833333Y-98660952D01*
X65833333Y-98803809D01*
X65785714Y-98994285D01*
X65738095Y-99089523D01*
X65642857Y-99184761D01*
X65500000Y-99232380D01*
X65261904Y-99232380D01*
X66785714Y-99232380D02*
X66214285Y-99232380D01*
X66500000Y-99232380D02*
X66500000Y-98232380D01*
X66404761Y-98375238D01*
X66309523Y-98470476D01*
X66214285Y-98518095D01*
%TO.C,SW7*%
X157166666Y-93242261D02*
X157309523Y-93289880D01*
X157547619Y-93289880D01*
X157642857Y-93242261D01*
X157690476Y-93194642D01*
X157738095Y-93099404D01*
X157738095Y-93004166D01*
X157690476Y-92908928D01*
X157642857Y-92861309D01*
X157547619Y-92813690D01*
X157357142Y-92766071D01*
X157261904Y-92718452D01*
X157214285Y-92670833D01*
X157166666Y-92575595D01*
X157166666Y-92480357D01*
X157214285Y-92385119D01*
X157261904Y-92337500D01*
X157357142Y-92289880D01*
X157595238Y-92289880D01*
X157738095Y-92337500D01*
X158071428Y-92289880D02*
X158309523Y-93289880D01*
X158500000Y-92575595D01*
X158690476Y-93289880D01*
X158928571Y-92289880D01*
X159214285Y-92289880D02*
X159880952Y-92289880D01*
X159452380Y-93289880D01*
%TO.C,D9*%
X135761904Y-114172380D02*
X135761904Y-113172380D01*
X136000000Y-113172380D01*
X136142857Y-113220000D01*
X136238095Y-113315238D01*
X136285714Y-113410476D01*
X136333333Y-113600952D01*
X136333333Y-113743809D01*
X136285714Y-113934285D01*
X136238095Y-114029523D01*
X136142857Y-114124761D01*
X136000000Y-114172380D01*
X135761904Y-114172380D01*
X136809523Y-114172380D02*
X137000000Y-114172380D01*
X137095238Y-114124761D01*
X137142857Y-114077142D01*
X137238095Y-113934285D01*
X137285714Y-113743809D01*
X137285714Y-113362857D01*
X137238095Y-113267619D01*
X137190476Y-113220000D01*
X137095238Y-113172380D01*
X136904761Y-113172380D01*
X136809523Y-113220000D01*
X136761904Y-113267619D01*
X136714285Y-113362857D01*
X136714285Y-113600952D01*
X136761904Y-113696190D01*
X136809523Y-113743809D01*
X136904761Y-113791428D01*
X137095238Y-113791428D01*
X137190476Y-113743809D01*
X137238095Y-113696190D01*
X137285714Y-113600952D01*
%TO.C,D2*%
X65261904Y-118732380D02*
X65261904Y-117732380D01*
X65500000Y-117732380D01*
X65642857Y-117780000D01*
X65738095Y-117875238D01*
X65785714Y-117970476D01*
X65833333Y-118160952D01*
X65833333Y-118303809D01*
X65785714Y-118494285D01*
X65738095Y-118589523D01*
X65642857Y-118684761D01*
X65500000Y-118732380D01*
X65261904Y-118732380D01*
X66214285Y-117827619D02*
X66261904Y-117780000D01*
X66357142Y-117732380D01*
X66595238Y-117732380D01*
X66690476Y-117780000D01*
X66738095Y-117827619D01*
X66785714Y-117922857D01*
X66785714Y-118018095D01*
X66738095Y-118160952D01*
X66166666Y-118732380D01*
X66785714Y-118732380D01*
%TO.C,H1*%
X39238095Y-37152380D02*
X39238095Y-36152380D01*
X39238095Y-36628571D02*
X39809523Y-36628571D01*
X39809523Y-37152380D02*
X39809523Y-36152380D01*
X40809523Y-37152380D02*
X40238095Y-37152380D01*
X40523809Y-37152380D02*
X40523809Y-36152380D01*
X40428571Y-36295238D01*
X40333333Y-36390476D01*
X40238095Y-36438095D01*
%TO.C,D3*%
X90761904Y-99232380D02*
X90761904Y-98232380D01*
X91000000Y-98232380D01*
X91142857Y-98280000D01*
X91238095Y-98375238D01*
X91285714Y-98470476D01*
X91333333Y-98660952D01*
X91333333Y-98803809D01*
X91285714Y-98994285D01*
X91238095Y-99089523D01*
X91142857Y-99184761D01*
X91000000Y-99232380D01*
X90761904Y-99232380D01*
X91666666Y-98232380D02*
X92285714Y-98232380D01*
X91952380Y-98613333D01*
X92095238Y-98613333D01*
X92190476Y-98660952D01*
X92238095Y-98708571D01*
X92285714Y-98803809D01*
X92285714Y-99041904D01*
X92238095Y-99137142D01*
X92190476Y-99184761D01*
X92095238Y-99232380D01*
X91809523Y-99232380D01*
X91714285Y-99184761D01*
X91666666Y-99137142D01*
%TO.C,SW5*%
X112666666Y-112742261D02*
X112809523Y-112789880D01*
X113047619Y-112789880D01*
X113142857Y-112742261D01*
X113190476Y-112694642D01*
X113238095Y-112599404D01*
X113238095Y-112504166D01*
X113190476Y-112408928D01*
X113142857Y-112361309D01*
X113047619Y-112313690D01*
X112857142Y-112266071D01*
X112761904Y-112218452D01*
X112714285Y-112170833D01*
X112666666Y-112075595D01*
X112666666Y-111980357D01*
X112714285Y-111885119D01*
X112761904Y-111837500D01*
X112857142Y-111789880D01*
X113095238Y-111789880D01*
X113238095Y-111837500D01*
X113571428Y-111789880D02*
X113809523Y-112789880D01*
X114000000Y-112075595D01*
X114190476Y-112789880D01*
X114428571Y-111789880D01*
X115285714Y-111789880D02*
X114809523Y-111789880D01*
X114761904Y-112266071D01*
X114809523Y-112218452D01*
X114904761Y-112170833D01*
X115142857Y-112170833D01*
X115238095Y-112218452D01*
X115285714Y-112266071D01*
X115333333Y-112361309D01*
X115333333Y-112599404D01*
X115285714Y-112694642D01*
X115238095Y-112742261D01*
X115142857Y-112789880D01*
X114904761Y-112789880D01*
X114809523Y-112742261D01*
X114761904Y-112694642D01*
%TO.C,H6*%
X180738095Y-128652380D02*
X180738095Y-127652380D01*
X180738095Y-128128571D02*
X181309523Y-128128571D01*
X181309523Y-128652380D02*
X181309523Y-127652380D01*
X182214285Y-127652380D02*
X182023809Y-127652380D01*
X181928571Y-127700000D01*
X181880952Y-127747619D01*
X181785714Y-127890476D01*
X181738095Y-128080952D01*
X181738095Y-128461904D01*
X181785714Y-128557142D01*
X181833333Y-128604761D01*
X181928571Y-128652380D01*
X182119047Y-128652380D01*
X182214285Y-128604761D01*
X182261904Y-128557142D01*
X182309523Y-128461904D01*
X182309523Y-128223809D01*
X182261904Y-128128571D01*
X182214285Y-128080952D01*
X182119047Y-128033333D01*
X181928571Y-128033333D01*
X181833333Y-128080952D01*
X181785714Y-128128571D01*
X181738095Y-128223809D01*
%TO.C,H5*%
X106238095Y-101652380D02*
X106238095Y-100652380D01*
X106238095Y-101128571D02*
X106809523Y-101128571D01*
X106809523Y-101652380D02*
X106809523Y-100652380D01*
X107761904Y-100652380D02*
X107285714Y-100652380D01*
X107238095Y-101128571D01*
X107285714Y-101080952D01*
X107380952Y-101033333D01*
X107619047Y-101033333D01*
X107714285Y-101080952D01*
X107761904Y-101128571D01*
X107809523Y-101223809D01*
X107809523Y-101461904D01*
X107761904Y-101557142D01*
X107714285Y-101604761D01*
X107619047Y-101652380D01*
X107380952Y-101652380D01*
X107285714Y-101604761D01*
X107238095Y-101557142D01*
%TO.C,D7*%
X135761904Y-75172380D02*
X135761904Y-74172380D01*
X136000000Y-74172380D01*
X136142857Y-74220000D01*
X136238095Y-74315238D01*
X136285714Y-74410476D01*
X136333333Y-74600952D01*
X136333333Y-74743809D01*
X136285714Y-74934285D01*
X136238095Y-75029523D01*
X136142857Y-75124761D01*
X136000000Y-75172380D01*
X135761904Y-75172380D01*
X136666666Y-74172380D02*
X137333333Y-74172380D01*
X136904761Y-75172380D01*
%TO.C,J2*%
X61550666Y-36462380D02*
X61550666Y-37176666D01*
X61503047Y-37319523D01*
X61407809Y-37414761D01*
X61264952Y-37462380D01*
X61169714Y-37462380D01*
X61979238Y-36557619D02*
X62026857Y-36510000D01*
X62122095Y-36462380D01*
X62360190Y-36462380D01*
X62455428Y-36510000D01*
X62503047Y-36557619D01*
X62550666Y-36652857D01*
X62550666Y-36748095D01*
X62503047Y-36890952D01*
X61931619Y-37462380D01*
X62550666Y-37462380D01*
%TO.C,SW3*%
X77666666Y-93242261D02*
X77809523Y-93289880D01*
X78047619Y-93289880D01*
X78142857Y-93242261D01*
X78190476Y-93194642D01*
X78238095Y-93099404D01*
X78238095Y-93004166D01*
X78190476Y-92908928D01*
X78142857Y-92861309D01*
X78047619Y-92813690D01*
X77857142Y-92766071D01*
X77761904Y-92718452D01*
X77714285Y-92670833D01*
X77666666Y-92575595D01*
X77666666Y-92480357D01*
X77714285Y-92385119D01*
X77761904Y-92337500D01*
X77857142Y-92289880D01*
X78095238Y-92289880D01*
X78238095Y-92337500D01*
X78571428Y-92289880D02*
X78809523Y-93289880D01*
X79000000Y-92575595D01*
X79190476Y-93289880D01*
X79428571Y-92289880D01*
X79714285Y-92289880D02*
X80333333Y-92289880D01*
X80000000Y-92670833D01*
X80142857Y-92670833D01*
X80238095Y-92718452D01*
X80285714Y-92766071D01*
X80333333Y-92861309D01*
X80333333Y-93099404D01*
X80285714Y-93194642D01*
X80238095Y-93242261D01*
X80142857Y-93289880D01*
X79857142Y-93289880D01*
X79761904Y-93242261D01*
X79714285Y-93194642D01*
%TO.C,D6*%
X125761904Y-112232380D02*
X125761904Y-111232380D01*
X126000000Y-111232380D01*
X126142857Y-111280000D01*
X126238095Y-111375238D01*
X126285714Y-111470476D01*
X126333333Y-111660952D01*
X126333333Y-111803809D01*
X126285714Y-111994285D01*
X126238095Y-112089523D01*
X126142857Y-112184761D01*
X126000000Y-112232380D01*
X125761904Y-112232380D01*
X127190476Y-111232380D02*
X127000000Y-111232380D01*
X126904761Y-111280000D01*
X126857142Y-111327619D01*
X126761904Y-111470476D01*
X126714285Y-111660952D01*
X126714285Y-112041904D01*
X126761904Y-112137142D01*
X126809523Y-112184761D01*
X126904761Y-112232380D01*
X127095238Y-112232380D01*
X127190476Y-112184761D01*
X127238095Y-112137142D01*
X127285714Y-112041904D01*
X127285714Y-111803809D01*
X127238095Y-111708571D01*
X127190476Y-111660952D01*
X127095238Y-111613333D01*
X126904761Y-111613333D01*
X126809523Y-111660952D01*
X126761904Y-111708571D01*
X126714285Y-111803809D01*
%TO.C,SW2*%
X52166666Y-112742261D02*
X52309523Y-112789880D01*
X52547619Y-112789880D01*
X52642857Y-112742261D01*
X52690476Y-112694642D01*
X52738095Y-112599404D01*
X52738095Y-112504166D01*
X52690476Y-112408928D01*
X52642857Y-112361309D01*
X52547619Y-112313690D01*
X52357142Y-112266071D01*
X52261904Y-112218452D01*
X52214285Y-112170833D01*
X52166666Y-112075595D01*
X52166666Y-111980357D01*
X52214285Y-111885119D01*
X52261904Y-111837500D01*
X52357142Y-111789880D01*
X52595238Y-111789880D01*
X52738095Y-111837500D01*
X53071428Y-111789880D02*
X53309523Y-112789880D01*
X53500000Y-112075595D01*
X53690476Y-112789880D01*
X53928571Y-111789880D01*
X54261904Y-111885119D02*
X54309523Y-111837500D01*
X54404761Y-111789880D01*
X54642857Y-111789880D01*
X54738095Y-111837500D01*
X54785714Y-111885119D01*
X54833333Y-111980357D01*
X54833333Y-112075595D01*
X54785714Y-112218452D01*
X54214285Y-112789880D01*
X54833333Y-112789880D01*
%TO.C,H2*%
X106238095Y-57652380D02*
X106238095Y-56652380D01*
X106238095Y-57128571D02*
X106809523Y-57128571D01*
X106809523Y-57652380D02*
X106809523Y-56652380D01*
X107238095Y-56747619D02*
X107285714Y-56700000D01*
X107380952Y-56652380D01*
X107619047Y-56652380D01*
X107714285Y-56700000D01*
X107761904Y-56747619D01*
X107809523Y-56842857D01*
X107809523Y-56938095D01*
X107761904Y-57080952D01*
X107190476Y-57652380D01*
X107809523Y-57652380D01*
%TO.C,J1*%
X46300666Y-36477380D02*
X46300666Y-37191666D01*
X46253047Y-37334523D01*
X46157809Y-37429761D01*
X46014952Y-37477380D01*
X45919714Y-37477380D01*
X47300666Y-37477380D02*
X46729238Y-37477380D01*
X47014952Y-37477380D02*
X47014952Y-36477380D01*
X46919714Y-36620238D01*
X46824476Y-36715476D01*
X46729238Y-36763095D01*
D12*
%TO.C,D5*%
X128785000Y-79415000D02*
X124900000Y-79415000D01*
X124900000Y-82585000D02*
X128785000Y-82585000D01*
X128785000Y-82585000D02*
X128785000Y-79415000D01*
%TO.C,SW1*%
X60500000Y-108500000D02*
X46500000Y-108500000D01*
X46500000Y-94500000D02*
X46500000Y-108500000D01*
X46500000Y-94500000D02*
X60500000Y-94500000D01*
X60500000Y-94500000D02*
X60500000Y-108500000D01*
%TO.C,ENC1*%
X120350000Y-82200000D02*
X120350000Y-84800000D01*
X114250000Y-83000000D02*
X114250000Y-84000000D01*
X112250000Y-77600000D02*
X108150000Y-77600000D01*
X107050000Y-79400000D02*
X106750000Y-79700000D01*
X112250000Y-89400000D02*
X108150000Y-89400000D01*
X106450000Y-79400000D02*
X107050000Y-79400000D01*
X120350000Y-89400000D02*
X116250000Y-89400000D01*
X108150000Y-77600000D02*
X108150000Y-89400000D01*
X106750000Y-79700000D02*
X106450000Y-79400000D01*
X113750000Y-83500000D02*
X114750000Y-83500000D01*
X120350000Y-87000000D02*
X120350000Y-89400000D01*
X116250000Y-77600000D02*
X120350000Y-77600000D01*
X120350000Y-77600000D02*
X120350000Y-80000000D01*
X117250000Y-83500000D02*
G75*
G03*
X117250000Y-83500000I-3000000J0D01*
G01*
%TO.C,SW8*%
X165500000Y-114000000D02*
X165500000Y-128000000D01*
X151500000Y-114000000D02*
X165500000Y-114000000D01*
X151500000Y-114000000D02*
X151500000Y-128000000D01*
X165500000Y-128000000D02*
X151500000Y-128000000D01*
%TO.C,SW4*%
X72000000Y-114000000D02*
X86000000Y-114000000D01*
X86000000Y-128000000D02*
X72000000Y-128000000D01*
X72000000Y-114000000D02*
X72000000Y-128000000D01*
X86000000Y-114000000D02*
X86000000Y-128000000D01*
%TO.C,SW6*%
X151500000Y-75000000D02*
X151500000Y-89000000D01*
X165500000Y-75000000D02*
X165500000Y-89000000D01*
X151500000Y-75000000D02*
X165500000Y-75000000D01*
X165500000Y-89000000D02*
X151500000Y-89000000D01*
%TO.C,D4*%
X93785000Y-114415000D02*
X89900000Y-114415000D01*
X93785000Y-117585000D02*
X93785000Y-114415000D01*
X89900000Y-117585000D02*
X93785000Y-117585000D01*
%TO.C,D8*%
X138100000Y-94915000D02*
X134215000Y-94915000D01*
X134215000Y-94915000D02*
X134215000Y-98085000D01*
X134215000Y-98085000D02*
X138100000Y-98085000D01*
%TO.C,D1*%
X68285000Y-98085000D02*
X68285000Y-94915000D01*
X68285000Y-94915000D02*
X64400000Y-94915000D01*
X64400000Y-98085000D02*
X68285000Y-98085000D01*
%TO.C,SW7*%
X165500000Y-108500000D02*
X151500000Y-108500000D01*
X151500000Y-94500000D02*
X151500000Y-108500000D01*
X151500000Y-94500000D02*
X165500000Y-94500000D01*
X165500000Y-94500000D02*
X165500000Y-108500000D01*
%TO.C,D9*%
X138100000Y-114415000D02*
X134215000Y-114415000D01*
X134215000Y-114415000D02*
X134215000Y-117585000D01*
X134215000Y-117585000D02*
X138100000Y-117585000D01*
%TO.C,D2*%
X68285000Y-114415000D02*
X64400000Y-114415000D01*
X64400000Y-117585000D02*
X68285000Y-117585000D01*
X68285000Y-117585000D02*
X68285000Y-114415000D01*
%TO.C,D3*%
X93785000Y-94915000D02*
X89900000Y-94915000D01*
X89900000Y-98085000D02*
X93785000Y-98085000D01*
X93785000Y-98085000D02*
X93785000Y-94915000D01*
%TO.C,SW5*%
X107000000Y-114000000D02*
X107000000Y-128000000D01*
X121000000Y-128000000D02*
X107000000Y-128000000D01*
X121000000Y-114000000D02*
X121000000Y-128000000D01*
X107000000Y-114000000D02*
X121000000Y-114000000D01*
%TO.C,D7*%
X134215000Y-75415000D02*
X134215000Y-78585000D01*
X134215000Y-78585000D02*
X138100000Y-78585000D01*
X138100000Y-75415000D02*
X134215000Y-75415000D01*
%TO.C,J2*%
X60554000Y-40610000D02*
X60554000Y-71150000D01*
X60554000Y-71150000D02*
X63214000Y-71150000D01*
X60554000Y-39340000D02*
X60554000Y-38010000D01*
X60554000Y-40610000D02*
X63214000Y-40610000D01*
X63214000Y-40610000D02*
X63214000Y-71150000D01*
X60554000Y-38010000D02*
X61884000Y-38010000D01*
%TO.C,SW3*%
X72000000Y-94500000D02*
X72000000Y-108500000D01*
X86000000Y-94500000D02*
X86000000Y-108500000D01*
X72000000Y-94500000D02*
X86000000Y-94500000D01*
X86000000Y-108500000D02*
X72000000Y-108500000D01*
%TO.C,D6*%
X128785000Y-111085000D02*
X128785000Y-107915000D01*
X128785000Y-107915000D02*
X124900000Y-107915000D01*
X124900000Y-111085000D02*
X128785000Y-111085000D01*
%TO.C,SW2*%
X46500000Y-114000000D02*
X46500000Y-128000000D01*
X60500000Y-114000000D02*
X60500000Y-128000000D01*
X46500000Y-114000000D02*
X60500000Y-114000000D01*
X60500000Y-128000000D02*
X46500000Y-128000000D01*
%TO.C,J1*%
X45304000Y-38025000D02*
X46634000Y-38025000D01*
X47964000Y-40625000D02*
X47964000Y-71165000D01*
X45304000Y-71165000D02*
X47964000Y-71165000D01*
X45304000Y-40625000D02*
X45304000Y-71165000D01*
X45304000Y-39355000D02*
X45304000Y-38025000D01*
X45304000Y-40625000D02*
X47964000Y-40625000D01*
%TD*%
M02*
